<?xml version="1.0" encoding="UTF-8"?>
<svg version="1.1" viewBox="0 0 2000 2000" width="1280" height="1280" xmlns="http://www.w3.org/2000/svg">
<path transform="translate(0)" d="m0 0h2e3v2e3h-2e3z" fill="#FEFEFD"/>
<path transform="translate(677,555)" d="m0 0h662l11 2 10 9 4 8 1 5 1 386h57l2 1-1 12-5 18-8 16-10 13-10 9-14 9-14 6-12 3-11 1h-685l-16-3-14-5-11-6-9-7-7-6v-2h-2l-10-14-7-15-4-16v-13l6-1 70-1v-385l2-8 4-6 9-8z" fill="#FDFEFD"/>
<path transform="translate(677,555)" d="m0 0h662l11 2 10 9 4 8 1 5 1 386h57l2 1-1 12-5 18-8 16-10 13-10 9-14 9-14 6-12 3-11 1h-685l-16-3-14-5-11-6-9-7-7-6v-2h-2l-10-14-7-15-4-16v-13l6-1 70-1v-385l2-8 4-6 9-8zm37 47-8 3-6 4-7 10-1 4v316l3 10 4 6 9 6 3 1h593l12-6 5-7 2-5 1-8v-311l-3-9-5-7-7-5-8-2z" fill="#00C2CE"/>
<path transform="translate(677,555)" d="m0 0h662l11 2 10 9 4 8 1 5v387h-714v-387l2-8 4-6 9-8zm37 47-8 3-6 4-7 10-1 4v316l3 10 4 6 9 6 3 1h593l12-6 5-7 2-5 1-8v-311l-3-9-5-7-7-5-8-2z" fill="#010001"/>
<path transform="translate(888,649)" d="m0 0h11l21 2 23 5 23 8 20 9 11 6 7-1 10-6 21-9 21-7 17-4 16-2h34l15 2 1 1 1 28v204l-5 1-8-1h-35l-19 3-23 6-29 10-18 8h-7l-14-6-25-9-18-6-24-5-8-1h-46l-1-1-1-10v-177l1-43 2-2 13-2z" fill="#00C2CE"/>
<path transform="translate(728,1146)" d="m0 0h48l20 2 18 6 14 9 8 8 8 13 5 14 2 17-1 17-4 14-6 12-11 12-9 7-13 6-10 3-7 1-20 1h-43v-141z" fill="#010001"/>
<path transform="translate(872,1146)" d="m0 0h27l1 2v68l1 26 4 11 8 7 6 2h18l10-4 6-7 3-8 1-96 1-1h27l1 1v89l-2 15-5 12-7 9-9 8-10 5-15 4h-19l-16-4-11-6-7-6-7-10-4-9-2-9-1-15v-76z" fill="#010001"/>
<path transform="translate(1285,1146)" d="m0 0h10l5 5 13 21 13 20 2 1 2-5 16-28 8-13 32-1-4 8-13 21-8 13-13 21-5 7 2 6 10 15 12 19 16 25 3 4-1 3h-29l-5-5-10-16-13-20-3-5h-2l-11 20-8 13-7 11-3 2h-27l-2-1 2-5 10-15 15-24 11-18 4-6-1-7-12-18-14-22-16-24v-1z" fill="#010001"/>
<path transform="translate(619,1146)" d="m0 0h82v16l-1 7-52 1v34l47 1v21l-1 1h-47l1 37 53 1v22l-1 1h-81z" fill="#010001"/>
<path transform="translate(1014,1146)" d="m0 0h86v23l-58 1v35l44 1v22l-44 1-1 59h-28v-141z" fill="#010001"/>
<path transform="translate(1150,681)" d="m0 0h17v230l-1 1h-130l-6-1 1-2 30-10 21-5 14-2h23l30 4v-214z" fill="#010001"/>
<path transform="translate(833,681)" d="m0 0h17v215l30-4h19l27 4 25 7 19 7-4 2h-133l-1-1v-219z" fill="#010001"/>
<path transform="translate(756,1170)" d="m0 0h22l14 2 10 4 10 9 6 9 4 14v18l-3 12-6 11-9 8-9 4-8 2-11 1h-21v-93z" fill="#FDFEFD"/>
<path transform="translate(1122,1146)" d="m0 0h26l1 1v118h46l1 1v21l-1 1h-74v-141z" fill="#010001"/>
<path transform="translate(1215,1146)" d="m0 0h27v141l-1 1h-26l-1-1v-140z" fill="#010001"/>
</svg>
