<svg xmlns="http://www.w3.org/2000/svg" width="16" height="16" viewBox="0 0 16 16" fill="none">
  <path d="M12.5 8.5L2.5 8.5C2.36739 8.5 2.24022 8.44732 2.14645 8.35355C2.05268 8.25979 2 8.13261 2 8C2 7.86739 2.05268 7.74022 2.14645 7.64645C2.24022 7.55268 2.36739 7.5 2.5 7.5L12.5 7.5C12.6326 7.5 12.7598 7.55268 12.8536 7.64645C12.9473 7.74021 13 7.86739 13 8C13 8.13261 12.9473 8.25979 12.8536 8.35355C12.7598 8.44732 12.6326 8.5 12.5 8.5Z" fill="black"/>
  <path d="M12.2921 8.0001L8.14511 3.8541C8.05122 3.76022 7.99847 3.63288 7.99847 3.5001C7.99847 3.36733 8.05122 3.23999 8.14511 3.1461C8.23899 3.05222 8.36633 2.99947 8.49911 2.99947C8.63188 2.99947 8.75922 3.05222 8.85311 3.1461L13.3531 7.6461C13.3997 7.69255 13.4366 7.74772 13.4618 7.80847C13.487 7.86921 13.5 7.93433 13.5 8.0001C13.5 8.06587 13.487 8.13099 13.4618 8.19173C13.4366 8.25248 13.3997 8.30766 13.3531 8.3541L8.85311 12.8541C8.75922 12.948 8.63188 13.0007 8.49911 13.0007C8.36633 13.0007 8.23899 12.948 8.14511 12.8541C8.05122 12.7602 7.99848 12.6329 7.99848 12.5001C7.99848 12.3673 8.05122 12.24 8.14511 12.1461L12.2921 8.0001Z" fill="black"/>
</svg>