<svg xmlns="http://www.w3.org/2000/svg" width="8" height="9" viewBox="0 0 8 9" fill="none">
  <path fill-rule="evenodd" clip-rule="evenodd" d="M7.83254 4.66488C7.93977 4.77036 8 4.91341 8 5.06257C8 5.21172 7.93977 5.35477 7.83254 5.46026L4.40091 8.83531C4.29365 8.94076 4.1482 9 3.99655 9C3.84489 9 3.69944 8.94076 3.59219 8.83531L0.160549 5.46026C0.0563663 5.35417 -0.00128236 5.21208 2.0848e-05 5.06459C0.00132406 4.9171 0.0614747 4.77602 0.167517 4.67173C0.273559 4.56743 0.417009 4.50828 0.566969 4.50699C0.71693 4.50571 0.861403 4.56241 0.969272 4.66487L3.42461 7.07972L3.42461 0.562508C3.42461 0.413322 3.48487 0.270245 3.59213 0.164754C3.69938 0.0592638 3.84486 5.9042e-07 3.99655 6.03681e-07C4.14824 6.16942e-07 4.29371 0.0592639 4.40097 0.164755C4.50823 0.270245 4.56849 0.413322 4.56849 0.562508L4.56849 7.07972L7.02382 4.66488C7.13108 4.55942 7.27653 4.50018 7.42818 4.50018C7.57984 4.50018 7.72529 4.55942 7.83254 4.66488Z" fill="#545454"/>
</svg>