<svg xmlns="http://www.w3.org/2000/svg" width="23" height="23" viewBox="0 0 23 23" fill="none">
  <path d="M20.8968 9.62319H20.1248V9.58341H11.4998V13.4167H16.9159C16.1257 15.6482 14.0025 17.2501 11.4998 17.2501C8.3244 17.2501 5.74984 14.6755 5.74984 11.5001C5.74984 8.32464 8.3244 5.75008 11.4998 5.75008C12.9656 5.75008 14.2991 6.30304 15.3145 7.20627L18.0251 4.49562C16.3135 2.90048 14.0241 1.91675 11.4998 1.91675C6.20744 1.91675 1.9165 6.20769 1.9165 11.5001C1.9165 16.7925 6.20744 21.0834 11.4998 21.0834C16.7922 21.0834 21.0832 16.7925 21.0832 11.5001C21.0832 10.8575 21.017 10.2303 20.8968 9.62319Z" fill="#FFC107"/>
  <path d="M3.02148 7.03952L6.17009 9.34862C7.02205 7.23933 9.08534 5.75008 11.4999 5.75008C12.9656 5.75008 14.2992 6.30304 15.3145 7.20627L18.0252 4.49562C16.3136 2.90048 14.0241 1.91675 11.4999 1.91675C7.8189 1.91675 4.62669 3.99489 3.02148 7.03952Z" fill="#FF3D00"/>
  <path d="M11.4998 21.0834C13.9752 21.0834 16.2244 20.1361 17.925 18.5956L14.9589 16.0857C13.9644 16.842 12.7492 17.2511 11.4998 17.2501C9.0072 17.2501 6.89072 15.6607 6.09339 13.4426L2.96826 15.8504C4.5543 18.954 7.77526 21.0834 11.4998 21.0834Z" fill="#4CAF50"/>
  <path d="M20.8969 9.62302H20.125V9.58325H11.5V13.4166H16.916C16.5381 14.4786 15.8572 15.4066 14.9577 16.086L14.9591 16.0851L17.9251 18.5949C17.7153 18.7856 21.0833 16.2916 21.0833 11.4999C21.0833 10.8574 21.0172 10.2301 20.8969 9.62302Z" fill="#1976D2"/>
</svg>