<svg width="49" height="49" viewBox="0 0 49 49" fill="none" xmlns="http://www.w3.org/2000/svg">
<circle cx="24.5" cy="24.5" r="24.5" fill="#262626"/>
<path d="M19.4999 13.3334H12.4999C11.8556 13.3334 11.3333 13.8557 11.3333 14.5V21.5C11.3333 22.1444 11.8556 22.6667 12.4999 22.6667H19.4999C20.1443 22.6667 20.6666 22.1444 20.6666 21.5V14.5C20.6666 13.8557 20.1443 13.3334 19.4999 13.3334Z" fill="#2F88FF" stroke="white" stroke-width="2" stroke-linejoin="round"/>
<path d="M19.4999 27.3334H12.4999C11.8556 27.3334 11.3333 27.8557 11.3333 28.5V35.5C11.3333 36.1444 11.8556 36.6667 12.4999 36.6667H19.4999C20.1443 36.6667 20.6666 36.1444 20.6666 35.5V28.5C20.6666 27.8557 20.1443 27.3334 19.4999 27.3334Z" fill="#2F88FF" stroke="white" stroke-width="2" stroke-linejoin="round"/>
<path d="M33.4999 13.3334H26.4999C25.8556 13.3334 25.3333 13.8557 25.3333 14.5V21.5C25.3333 22.1444 25.8556 22.6667 26.4999 22.6667H33.4999C34.1443 22.6667 34.6666 22.1444 34.6666 21.5V14.5C34.6666 13.8557 34.1443 13.3334 33.4999 13.3334Z" fill="#2F88FF" stroke="white" stroke-width="2" stroke-linejoin="round"/>
<path d="M25.3333 27.3334H34.6666" stroke="white" stroke-width="2" stroke-linecap="round" stroke-linejoin="round"/>
<path d="M30 32H34.6667" stroke="white" stroke-width="2" stroke-linecap="round" stroke-linejoin="round"/>
<path d="M25.3333 36.6667H34.6666" stroke="white" stroke-width="2" stroke-linecap="round" stroke-linejoin="round"/>
</svg>
