<svg xmlns="http://www.w3.org/2000/svg" width="28" height="28" viewBox="0 0 28 28" fill="none">
  <circle cx="14" cy="14" r="14" fill="white"/>
  <path d="M14 7C15.0609 7 16.0783 7.39509 16.8284 8.09835C17.5786 8.80161 18 9.75544 18 10.75C18 11.7446 17.5786 12.6984 16.8284 13.4017C16.0783 14.1049 15.0609 14.5 14 14.5C12.9391 14.5 11.9217 14.1049 11.1716 13.4017C10.4214 12.6984 10 11.7446 10 10.75C10 9.75544 10.4214 8.80161 11.1716 8.09835C11.9217 7.39509 12.9391 7 14 7ZM14 16.375C18.42 16.375 22 18.0531 22 20.125V20.125C22 21.1605 21.1605 22 20.125 22H7.875C6.83947 22 6 21.1605 6 20.125V20.125C6 18.0531 9.58 16.375 14 16.375Z" fill="black"/>
</svg>