<svg xmlns="http://www.w3.org/2000/svg" width="21" height="21" viewBox="0 0 21 21" fill="none">
  <path d="M8.18344 2.87706C7.88391 2.70869 7.54554 2.62165 7.20195 2.62458C6.85836 2.62752 6.52152 2.72032 6.22491 2.89377C5.9283 3.06723 5.68225 3.31529 5.51122 3.6133C5.34019 3.91131 5.25013 4.24889 5.25 4.5925V16.405C5.2499 16.7487 5.3398 17.0865 5.51073 17.3847C5.68167 17.6828 5.9277 17.9311 6.22434 18.1047C6.52099 18.2783 6.85792 18.3712 7.20162 18.3742C7.54532 18.3772 7.88382 18.2902 8.18344 18.1217L18.6834 12.2155C18.988 12.0443 19.2415 11.7951 19.4179 11.4935C19.5943 11.1919 19.6873 10.8488 19.6873 10.4994C19.6873 10.15 19.5943 9.80691 19.4179 9.50533C19.2415 9.20375 18.988 8.95455 18.6834 8.78331L8.18344 2.87706Z" fill="white"/>
</svg>