<svg xmlns="http://www.w3.org/2000/svg" width="21" height="21" viewBox="0 0 21 21" fill="none">
  <path d="M0.375 20.625V15.8438L15.225 1.02188C15.45 0.815625 15.6986 0.65625 15.9709 0.54375C16.2431 0.43125 16.5289 0.375 16.8281 0.375C17.1281 0.375 17.4187 0.43125 17.7 0.54375C17.9812 0.65625 18.225 0.825 18.4312 1.05L19.9781 2.625C20.2031 2.83125 20.3674 3.075 20.4709 3.35625C20.5744 3.6375 20.6257 3.91875 20.625 4.2C20.625 4.5 20.5736 4.78613 20.4709 5.05838C20.3681 5.33063 20.2039 5.57887 19.9781 5.80312L5.15625 20.625H0.375ZM16.8 5.775L18.375 4.2L16.8 2.625L15.225 4.2L16.8 5.775Z" fill="#F8F8F8"/>
</svg>