<svg xmlns="http://www.w3.org/2000/svg" width="12" height="12" viewBox="0 0 12 12" fill="none">
  <path fill-rule="evenodd" clip-rule="evenodd" d="M5.1249 0.166504C4.33425 0.166571 3.55507 0.355716 2.85239 0.718159C2.1497 1.0806 1.54387 1.60583 1.08546 2.25003C0.627042 2.89422 0.329326 3.63871 0.21715 4.42136C0.104974 5.20402 0.181591 6.00215 0.440608 6.74918C0.699625 7.4962 1.13353 8.17045 1.70613 8.71568C2.27872 9.2609 2.9734 9.66129 3.7322 9.88344C4.49101 10.1056 5.29194 10.143 6.06817 9.9927C6.84439 9.84236 7.57341 9.50857 8.1944 9.01917L10.3247 11.1495C10.4348 11.2558 10.5821 11.3146 10.7351 11.3132C10.888 11.3119 11.0343 11.2506 11.1425 11.1424C11.2506 11.0342 11.312 10.8879 11.3133 10.735C11.3146 10.582 11.2558 10.4347 11.1496 10.3247L9.01924 8.19434C9.59557 7.4632 9.95442 6.58457 10.0547 5.65901C10.155 4.73345 9.9927 3.79835 9.58637 2.96073C9.18003 2.1231 8.54609 1.4168 7.75708 0.922639C6.96807 0.428483 6.05588 0.166441 5.1249 0.166504ZM1.33324 5.12484C1.33324 4.11923 1.73272 3.1548 2.44379 2.44372C3.15487 1.73265 4.11929 1.33317 5.1249 1.33317C6.13052 1.33317 7.09494 1.73265 7.80602 2.44372C8.51709 3.1548 8.91657 4.11923 8.91657 5.12484C8.91657 6.13045 8.51709 7.09488 7.80602 7.80595C7.09494 8.51703 6.13052 8.9165 5.1249 8.9165C4.11929 8.9165 3.15487 8.51703 2.44379 7.80595C1.73272 7.09488 1.33324 6.13045 1.33324 5.12484Z" fill="#E0E0E0"/>
</svg>