<svg xmlns="http://www.w3.org/2000/svg" width="152" height="149" viewBox="0 0 152 149" fill="none">
  <path d="M76 0.5625C95.9575 0.5625 115.098 8.35232 129.21 22.2183C143.322 36.0843 151.25 54.8906 151.25 74.5C151.25 94.1094 143.322 112.916 129.21 126.782C115.098 140.648 95.9575 148.438 76 148.438C56.0425 148.438 36.9023 140.648 22.7902 126.782C8.6781 112.916 0.75 94.1094 0.75 74.5C0.75 54.8906 8.6781 36.0843 22.7902 22.2183C36.9023 8.35232 56.0425 0.5625 76 0.5625ZM66.626 89.0868L49.9097 72.6516C49.3105 72.0627 48.599 71.5957 47.8161 71.277C47.0331 70.9583 46.1939 70.7943 45.3464 70.7943C44.4989 70.7943 43.6597 70.9583 42.8767 71.277C42.0937 71.5957 41.3823 72.0627 40.783 72.6516C39.5727 73.8407 38.8928 75.4536 38.8928 77.1353C38.8928 78.8171 39.5727 80.4299 40.783 81.6191L62.068 102.533C62.6656 103.125 63.3765 103.594 64.1597 103.915C64.9429 104.235 65.7829 104.4 66.6314 104.4C67.4798 104.4 68.3198 104.235 69.1031 103.915C69.8863 103.594 70.5972 103.125 71.1947 102.533L115.27 59.2161C115.877 58.6297 116.36 57.931 116.691 57.1602C117.022 56.3895 117.195 55.562 117.199 54.7254C117.203 53.8888 117.038 53.0597 116.714 52.286C116.391 51.5123 115.914 50.8092 115.312 50.2173C114.711 49.6254 113.996 49.1564 113.209 48.8373C112.421 48.5183 111.578 48.3555 110.726 48.3584C109.875 48.3613 109.033 48.5299 108.248 48.8543C107.463 49.1786 106.751 49.6525 106.154 50.2485L66.626 89.0868Z" fill="#4ECB71"/>
</svg>